/* XPM */
static char * pondus_xpm[] = {
"32 32 118 2",
"  	c None",
". 	c #000000",
"+ 	c #232323",
"@ 	c #585858",
"# 	c #909090",
"$ 	c #A5A5A5",
"% 	c #A7A7A7",
"& 	c #939393",
"* 	c #5C5C5C",
"= 	c #282828",
"- 	c #040404",
"; 	c #3A3A3A",
"> 	c #989898",
", 	c #B2B2B2",
"' 	c #B3B3B3",
") 	c #BB9F9F",
"! 	c #CD7373",
"~ 	c #9E9898",
"{ 	c #434343",
"] 	c #060606",
"^ 	c #000002",
"/ 	c #000007",
"( 	c #020202",
"_ 	c #6D6D6D",
": 	c #B0B0B0",
"< 	c #B5ADAD",
"[ 	c #E14646",
"} 	c #E34343",
"| 	c #B1B1B1",
"1 	c #797979",
"2 	c #000006",
"3 	c #000003",
"4 	c #00004A",
"5 	c #00008C",
"6 	c #00000B",
"7 	c #303030",
"8 	c #AEAEAE",
"9 	c #C28F8F",
"0 	c #F51717",
"a 	c #C58787",
"b 	c #3C3C3C",
"c 	c #000085",
"d 	c #000055",
"e 	c #000016",
"f 	c #000093",
"g 	c #0000FD",
"h 	c #000075",
"i 	c #1B1B1B",
"j 	c #929292",
"k 	c #E93535",
"l 	c #999999",
"m 	c #000063",
"n 	c #0000FA",
"o 	c #0000A2",
"p 	c #00001D",
"q 	c #0000F6",
"r 	c #0000EA",
"s 	c #000041",
"t 	c #454545",
"u 	c #BAA3A3",
"v 	c #F61414",
"w 	c #CC7878",
"x 	c #525252",
"y 	c #000035",
"z 	c #0000DF",
"A 	c #0000F9",
"B 	c #000086",
"C 	c #00000D",
"D 	c #0000F7",
"E 	c #0000FF",
"F 	c #0000CE",
"G 	c #000024",
"H 	c #666666",
"I 	c #A2A2A2",
"J 	c #B47979",
"K 	c #D03F3F",
"L 	c #A79797",
"M 	c #747474",
"N 	c #000019",
"O 	c #0000C3",
"P 	c #0000FC",
"Q 	c #00001F",
"R 	c #000038",
"S 	c #0000C5",
"T 	c #00001B",
"U 	c #1D1D1D",
"V 	c #2B2B2B",
"W 	c #2C2929",
"X 	c #322323",
"Y 	c #212121",
"Z 	c #00000E",
"` 	c #0000B8",
" .	c #00004F",
"..	c #000066",
"+.	c #0000ED",
"@.	c #000092",
"#.	c #000074",
"$.	c #0000E7",
"%.	c #00007E",
"&.	c #00006A",
"*.	c #000064",
"=.	c #00007D",
"-.	c #000059",
";.	c #00000C",
">.	c #0000F0",
",.	c #000020",
"'.	c #00008A",
").	c #00009E",
"!.	c #000091",
"~.	c #0000F5",
"{.	c #0000F8",
"].	c #00009D",
"^.	c #00001C",
"/.	c #0000B0",
"(.	c #0000FE",
"_.	c #0000B5",
":.	c #00006C",
"<.	c #000010",
"                                                                ",
"                        . . . . . . . .                         ",
"                    . . + @ # $ % & * = . .                     ",
"                  . - ; > , ' ' ' ) ! ~ { ] .                   ",
"            . ^ / ( _ : ' ' ' ' < [ } < | 1 - 2 3 .             ",
"        . . 4 5 6 7 8 ' ' ' ' ' 9 0 a ' ' : b 2 c d . .         ",
"      . e f g h i j ' ' ' ' ' ' [ k ' ' ' ' l + m n o p .       ",
"      . h q r s t : ' ' ' ' ' u v w ' ' ' ' , x y z A B .       ",
"      C D E F G H I I I I I I J K L I I I I I M N O E P Q       ",
"    . R E E S T U V V V V V V W X V V V V V V Y Z ` E E  ..     ",
"    . ..E E +.@.#.#.#.#.#.#.#.#.#.#.#.#.#.#.#.#.5 $.E E %..     ",
"    . &.E E E E E E E E E E E E E E E E E E E E E E E E c .     ",
"    . &.E E E E E E E E E E E E E E E E E E E E E E E E c .     ",
"    . &.E E E E E E E E E E E E E E E E E E E E E E E E c .     ",
"    . &.E E E E E E E E E E E E E E E E E E E E E E E E c .     ",
"    . &.E E E E E E E E E E E E E E E E E E E E E E E E c .     ",
"    . &.E E E E E E E E E E E E E E E E E E E E E E E E c .     ",
"    . &.E E E E E E E E E E E E E E E E E E E E E E E E c .     ",
"    . &.E E E E E E E E E E E E E E E E E E E E E E E E c .     ",
"    . &.E E E E E E E E E E E E E E E E E E E E E E E E c .     ",
"    . &.E E E E E E E E E E E E E E E E E E E E E E E E c .     ",
"    . &.E E E E E E E E E E E E E E E E E E E E E E E E c .     ",
"    . &.E E E E E E E E E E E E E E E E E E E E E E E E c .     ",
"    . &.E E E E E E E E E E E E E E E E E E E E E E E E c .     ",
"    . *.E E E E E E E E E E E E E E E E E E E E E E E E =..     ",
"    . s E E E E E E E E E E E E E E E E E E E E E E E E -..     ",
"      ;.>.E E E E E E E E E E E E E E E E E E E E E E D ,.      ",
"      . '.P E E E E E E E E E E E E E E E E E E E E E ).^       ",
"        e !.~.E E E E E E E E E E E E E E E E E E {.].^.        ",
"        . ;.*./.r (.E E E E E E E E E E E E E +._.:.<..         ",
"            . . . . . . . . . . . . . . . . . . . .             ",
"                                                                "};
